<svg width="18" height="19" viewBox="0 0 18 19" fill="none" xmlns="http://www.w3.org/2000/svg">
<g clip-path="url(#clip0_18_39)">
<path fill-rule="evenodd" clip-rule="evenodd" d="M9.16919 18.25C14.0017 18.25 17.9192 14.3325 17.9192 9.5C17.9192 4.66751 14.0017 0.75 9.16919 0.75C4.3367 0.75 0.419189 4.66751 0.419189 9.5C0.419189 14.3325 4.3367 18.25 9.16919 18.25Z" fill="white"/>
<path fill-rule="evenodd" clip-rule="evenodd" d="M7.84569 14.55V9.49967H6.81934V7.82562H7.84569V6.81326C7.84569 5.44775 8.25396 4.46307 9.74907 4.46307H11.5277V6.13369H10.2753C9.6481 6.13369 9.50517 6.55046 9.50517 6.98691V7.82562H11.4353L11.1718 9.49967H9.50517V14.55H7.84569Z" fill="black"/>
</g>
<defs>
<clipPath id="clip0_18_39">
<rect width="17.5" height="17.5" fill="white" transform="translate(0.419189 0.75)"/>
</clipPath>
</defs>
</svg>
