<svg width="27" height="16" viewBox="0 0 27 16" fill="none" xmlns="http://www.w3.org/2000/svg">
<path d="M26.494 5.92954C26.5524 4.54157 26.1827 3.16398 25.4192 1.9247C24.9012 1.41619 24.1823 1.07302 23.3878 0.955001C20.1015 0.710178 16.8016 0.609832 13.5022 0.654396C10.2149 0.60781 6.92684 0.704917 3.65207 0.945304C3.00463 1.042 2.40546 1.29133 1.9277 1.66288C0.864734 2.46773 0.746627 3.84469 0.62852 5.00833C0.45716 7.10051 0.45716 9.19977 0.62852 11.292C0.662688 11.9469 0.781461 12.597 0.982841 13.2313C1.12525 13.7211 1.41337 14.1742 1.8214 14.5501C2.30242 14.9414 2.91553 15.2049 3.5812 15.3065C6.12749 15.5645 8.69314 15.6715 11.2582 15.6265C15.3919 15.675 19.0178 15.6265 23.3051 15.355C23.9871 15.2596 24.6175 14.9957 25.1122 14.5986C25.4428 14.327 25.6898 13.9946 25.8326 13.6289C26.255 12.5648 26.4625 11.4511 26.4468 10.332C26.494 9.78892 26.494 6.51135 26.494 5.92954ZM10.833 10.9138V4.91136L17.8249 7.92711C15.8644 8.81923 13.2778 9.82771 10.833 10.9138Z" fill="white"/>
</svg>
