<svg width="23" height="21" viewBox="0 0 23 21" fill="none" xmlns="http://www.w3.org/2000/svg">
<path fill-rule="evenodd" clip-rule="evenodd" d="M18.9946 2.46115C18.1541 1.50555 16.9564 0.896701 15.6309 0.874639C13.0861 0.832279 11.0226 2.98273 11.0226 5.67761C11.0226 6.06008 11.0634 6.43304 11.142 6.79107C7.31209 6.54265 3.91647 4.5483 1.6437 1.54206C1.24703 2.26242 1.01972 3.10437 1.01972 4.00628C1.01972 5.71368 1.83327 7.22897 3.06978 8.12367C2.3144 8.09032 1.60383 7.86165 0.982542 7.48651C0.982093 7.50701 0.982093 7.52752 0.982093 7.54839C0.982093 9.93277 2.57057 11.9331 4.6787 12.399C4.29203 12.5086 3.88491 12.566 3.46465 12.5632C3.16771 12.5612 2.87897 12.5283 2.59764 12.4692C3.184 14.4246 4.8858 15.8515 6.90239 15.8987C5.32526 17.2078 3.33831 17.9876 1.17919 17.9831C0.80723 17.9823 0.440433 17.9583 0.0799255 17.9121C2.11932 19.3114 4.54157 20.1261 7.14397 20.1268C15.6202 20.129 20.2554 12.7526 20.2554 6.35453C20.2554 6.14462 20.2508 5.93583 20.2421 5.72804C21.1424 5.05715 21.9237 4.21599 22.5415 3.25547C21.7151 3.62798 20.8269 3.87538 19.8948 3.97916C20.8462 3.39365 21.577 2.45656 21.921 1.33282C21.0305 1.87283 20.0443 2.2601 18.9946 2.46115Z" fill="white"/>
</svg>
