<svg width="23" height="22" viewBox="0 0 23 22" fill="none" xmlns="http://www.w3.org/2000/svg">
<path d="M16.395 5.42057C16.1774 5.42057 15.9647 5.48215 15.7839 5.59752C15.603 5.7129 15.462 5.87689 15.3787 6.06875C15.2955 6.26061 15.2737 6.47173 15.3161 6.67541C15.3586 6.87909 15.4633 7.06618 15.6172 7.21303C15.771 7.35987 15.967 7.45988 16.1804 7.50039C16.3938 7.54091 16.6149 7.52011 16.8159 7.44064C17.0169 7.36117 17.1887 7.22659 17.3096 7.05392C17.4305 6.88124 17.495 6.67824 17.495 6.47057C17.495 6.19209 17.3791 5.92502 17.1728 5.7281C16.9665 5.53119 16.6867 5.42057 16.395 5.42057ZM20.6116 7.53807C20.5938 6.81208 20.4514 6.09379 20.19 5.41182C19.9569 4.82831 19.5941 4.29994 19.1266 3.86307C18.6727 3.41456 18.1179 3.07047 17.5041 2.85682C16.7916 2.59971 16.0383 2.46063 15.2766 2.44557C14.305 2.39307 13.9933 2.39307 11.5 2.39307C9.00665 2.39307 8.69498 2.39307 7.72331 2.44557C6.9617 2.46063 6.20838 2.59971 5.49581 2.85682C4.88318 3.07263 4.32884 3.41643 3.87331 3.86307C3.40345 4.29635 3.04297 4.82595 2.81915 5.41182C2.54979 6.09199 2.40409 6.81107 2.38831 7.53807C2.33331 8.46557 2.33331 8.76307 2.33331 11.1431C2.33331 13.5231 2.33331 13.8206 2.38831 14.7481C2.40409 15.4751 2.54979 16.1941 2.81915 16.8743C3.04297 17.4602 3.40345 17.9898 3.87331 18.4231C4.32884 18.8697 4.88318 19.2135 5.49581 19.4293C6.20838 19.6864 6.9617 19.8255 7.72331 19.8406C8.69498 19.8931 9.00665 19.8931 11.5 19.8931C13.9933 19.8931 14.305 19.8931 15.2766 19.8406C16.0383 19.8255 16.7916 19.6864 17.5041 19.4293C18.1179 19.2157 18.6727 18.8716 19.1266 18.4231C19.5962 17.9878 19.9593 17.459 20.19 16.8743C20.4514 16.1923 20.5938 15.4741 20.6116 14.7481C20.6116 13.8206 20.6666 13.5231 20.6666 11.1431C20.6666 8.76307 20.6666 8.46557 20.6116 7.53807ZM18.9616 14.6431C18.955 15.1985 18.8496 15.7488 18.65 16.2706C18.5036 16.6514 18.2685 16.9954 17.9625 17.2768C17.6652 17.566 17.3054 17.7899 16.9083 17.9331C16.3617 18.1236 15.7852 18.2242 15.2033 18.2306C14.2866 18.2743 13.9475 18.2831 11.5366 18.2831C9.12581 18.2831 8.78665 18.2831 7.86998 18.2306C7.2658 18.2414 6.66419 18.1526 6.09165 17.9681C5.71195 17.8176 5.36872 17.5943 5.08331 17.3118C4.77906 17.0307 4.54692 16.6864 4.40498 16.3056C4.18118 15.7763 4.05705 15.2135 4.03831 14.6431C4.03831 13.7681 3.98331 13.4443 3.98331 11.1431C3.98331 8.84182 3.98331 8.51807 4.03831 7.64307C4.04242 7.07524 4.15102 6.51252 4.35915 5.98057C4.52052 5.61124 4.76822 5.28202 5.08331 5.01807C5.36181 4.71721 5.70599 4.47828 6.09165 4.31807C6.6504 4.1256 7.23931 4.02501 7.83331 4.02057C8.74998 4.02057 9.08915 3.96807 11.5 3.96807C13.9108 3.96807 14.25 3.96807 15.1666 4.02057C15.7485 4.02694 16.325 4.12753 16.8716 4.31807C17.2882 4.46564 17.6621 4.70556 17.9625 5.01807C18.2629 5.28685 18.4976 5.61546 18.65 5.98057C18.8537 6.51338 18.9592 7.07587 18.9616 7.64307C19.0075 8.51807 19.0166 8.84182 19.0166 11.1431C19.0166 13.4443 19.0075 13.7681 18.9616 14.6431ZM11.5 6.65432C10.5703 6.65605 9.66203 6.92078 8.88991 7.41506C8.1178 7.90934 7.51649 8.61099 7.16198 9.43135C6.80746 10.2517 6.71564 11.154 6.89812 12.0241C7.08061 12.8943 7.5292 13.6933 8.18722 14.3202C8.84524 14.9471 9.68316 15.3737 10.5951 15.5462C11.507 15.7187 12.4521 15.6293 13.3108 15.2893C14.1696 14.9493 14.9035 14.374 15.4198 13.636C15.9361 12.898 16.2116 12.0305 16.2116 11.1431C16.2129 10.5525 16.0918 9.9676 15.8553 9.4219C15.6188 8.87621 15.2717 8.38052 14.8338 7.96336C14.3959 7.5462 13.8759 7.21578 13.3038 6.99113C12.7317 6.76647 12.1186 6.65201 11.5 6.65432ZM11.5 14.0568C10.8963 14.0568 10.3061 13.8859 9.8041 13.5658C9.30212 13.2456 8.91087 12.7905 8.67984 12.2581C8.4488 11.7257 8.38835 11.1398 8.50613 10.5746C8.62391 10.0094 8.91464 9.49023 9.34154 9.08273C9.76844 8.67524 10.3123 8.39773 10.9045 8.2853C11.4966 8.17288 12.1103 8.23058 12.6681 8.45111C13.2259 8.67165 13.7026 9.04511 14.038 9.52427C14.3735 10.0034 14.5525 10.5668 14.5525 11.1431C14.5525 11.5257 14.4735 11.9046 14.3201 12.2581C14.1667 12.6116 13.9419 12.9328 13.6584 13.2034C13.375 13.474 13.0385 13.6886 12.6681 13.835C12.2978 13.9815 11.9008 14.0568 11.5 14.0568Z" fill="white"/>
</svg>
