<svg width="18" height="19" viewBox="0 0 18 19" fill="none" xmlns="http://www.w3.org/2000/svg">
<g clip-path="url(#clip0_18_44)">
<path fill-rule="evenodd" clip-rule="evenodd" d="M9.16919 0.75C13.9984 0.75 17.9192 4.67075 17.9192 9.5C17.9192 14.3292 13.9984 18.25 9.16919 18.25C4.33994 18.25 0.419189 14.3292 0.419189 9.5C0.419189 4.67075 4.33994 0.75 9.16919 0.75ZM9.16919 4.03125C7.68398 4.03125 7.49773 4.03754 6.91442 4.06416C6.33234 4.09072 5.9348 4.18318 5.58692 4.31836C5.22731 4.45812 4.92233 4.64512 4.6183 4.94915C4.31427 5.25317 4.12728 5.55816 3.98751 5.91776C3.85233 6.26561 3.75991 6.66315 3.73332 7.24523C3.70673 7.82854 3.70044 8.01479 3.70044 9.5C3.70044 10.9852 3.70673 11.1715 3.73332 11.7548C3.75991 12.3368 3.85233 12.7344 3.98751 13.0822C4.12728 13.4418 4.31427 13.7468 4.6183 14.0509C4.92233 14.3549 5.22731 14.5419 5.58692 14.6817C5.9348 14.8168 6.33234 14.9093 6.91442 14.9358C7.49773 14.9625 7.68398 14.9688 9.16919 14.9688C10.6544 14.9688 10.8406 14.9625 11.424 14.9358C12.006 14.9093 12.4036 14.8168 12.7514 14.6817C13.111 14.5419 13.416 14.3549 13.7201 14.0509C14.0241 13.7468 14.2111 13.4418 14.3509 13.0822C14.486 12.7344 14.5785 12.3368 14.605 11.7548C14.6316 11.1715 14.6379 10.9852 14.6379 9.5C14.6379 8.01479 14.6316 7.82854 14.605 7.24523C14.5785 6.66315 14.486 6.26561 14.3509 5.91776C14.2111 5.55816 14.0241 5.25317 13.7201 4.94915C13.416 4.64512 13.111 4.45812 12.7514 4.31836C12.4036 4.18318 12.006 4.09072 11.424 4.06416C10.8406 4.03754 10.6544 4.03125 9.16919 4.03125ZM9.16919 5.01662C10.6294 5.01662 10.8024 5.02219 11.379 5.04851C11.9122 5.07284 12.2018 5.16191 12.3945 5.2368C12.6498 5.33599 12.832 5.45453 13.0233 5.6459C13.2147 5.83724 13.3332 6.01945 13.4324 6.2747C13.5073 6.46741 13.5964 6.75694 13.6207 7.29015C13.647 7.86683 13.6526 8.03978 13.6526 9.5C13.6526 10.9602 13.647 11.1332 13.6207 11.7099C13.5964 12.2431 13.5073 12.5326 13.4324 12.7253C13.3332 12.9806 13.2147 13.1628 13.0233 13.3541C12.832 13.5455 12.6498 13.664 12.3945 13.7632C12.2018 13.8381 11.9122 13.9272 11.379 13.9515C10.8025 13.9778 10.6295 13.9834 9.16919 13.9834C7.70886 13.9834 7.53595 13.9778 6.95934 13.9515C6.42613 13.9272 6.1366 13.8381 5.94389 13.7632C5.6886 13.664 5.50643 13.5455 5.31505 13.3541C5.12368 13.1628 5.00518 12.9806 4.90599 12.7253C4.8311 12.5326 4.742 12.2431 4.71766 11.7099C4.69134 11.1332 4.68581 10.9602 4.68581 9.5C4.68581 8.03978 4.69134 7.86683 4.71766 7.29015C4.742 6.75694 4.8311 6.46741 4.90599 6.2747C5.00518 6.01945 5.12368 5.83724 5.31505 5.6459C5.50643 5.45453 5.6886 5.33599 5.94389 5.2368C6.1366 5.16191 6.42613 5.07284 6.95934 5.04851C7.53602 5.02219 7.70896 5.01662 9.16919 5.01662ZM9.16919 6.69173C7.61822 6.69173 6.36092 7.94903 6.36092 9.5C6.36092 11.051 7.61822 12.3083 9.16919 12.3083C10.7202 12.3083 11.9775 11.051 11.9775 9.5C11.9775 7.94903 10.7202 6.69173 9.16919 6.69173ZM9.16919 11.3229C8.16243 11.3229 7.34628 10.5068 7.34628 9.5C7.34628 8.49324 8.16243 7.67709 9.16919 7.67709C10.176 7.67709 10.9921 8.49324 10.9921 9.5C10.9921 10.5068 10.176 11.3229 9.16919 11.3229ZM12.7447 6.58078C12.7447 6.94322 12.4508 7.237 12.0884 7.237C11.726 7.237 11.4322 6.94322 11.4322 6.58078C11.4322 6.21834 11.726 5.92453 12.0884 5.92453C12.4508 5.92453 12.7447 6.21834 12.7447 6.58078Z" fill="white"/>
</g>
<defs>
<clipPath id="clip0_18_44">
<rect width="17.5" height="17.5" fill="white" transform="translate(0.419189 0.75)"/>
</clipPath>
</defs>
</svg>
