<svg width="20" height="19" viewBox="0 0 20 19" fill="none" xmlns="http://www.w3.org/2000/svg">
<path d="M9.82842 2C8.14872 2 6.53781 2.66726 5.35008 3.85499C4.16235 5.04272 3.49509 6.65363 3.49509 8.33333C3.49509 12.6083 9.07634 17.4375 9.31384 17.6433C9.45723 17.766 9.63972 17.8334 9.82842 17.8334C10.0171 17.8334 10.1996 17.766 10.343 17.6433C10.6201 17.4375 16.1618 12.6083 16.1618 8.33333C16.1618 6.65363 15.4945 5.04272 14.3068 3.85499C13.119 2.66726 11.5081 2 9.82842 2ZM9.82842 15.9729C8.14217 14.3896 5.07842 10.9775 5.07842 8.33333C5.07842 7.07355 5.57887 5.86537 6.46966 4.97458C7.36046 4.08378 8.56864 3.58333 9.82842 3.58333C11.0882 3.58333 12.2964 4.08378 13.1872 4.97458C14.078 5.86537 14.5784 7.07355 14.5784 8.33333C14.5784 10.9775 11.5147 14.3975 9.82842 15.9729ZM9.82842 5.16667C9.20211 5.16667 8.58987 5.35239 8.06911 5.70035C7.54836 6.0483 7.14248 6.54287 6.9028 7.1215C6.66312 7.70014 6.60041 8.33685 6.7226 8.95112C6.84479 9.56539 7.14638 10.1296 7.58925 10.5725C8.03211 11.0154 8.59636 11.317 9.21063 11.4392C9.82491 11.5613 10.4616 11.4986 11.0403 11.259C11.6189 11.0193 12.1134 10.6134 12.4614 10.0926C12.8094 9.57188 12.9951 8.95964 12.9951 8.33333C12.9951 7.49348 12.6615 6.68803 12.0676 6.09416C11.4737 5.5003 10.6683 5.16667 9.82842 5.16667ZM9.82842 9.91667C9.51527 9.91667 9.20915 9.82381 8.94877 9.64983C8.68839 9.47585 8.48545 9.22857 8.36561 8.93925C8.24577 8.64993 8.21442 8.33158 8.27551 8.02444C8.3366 7.7173 8.4874 7.43518 8.70883 7.21375C8.93027 6.99231 9.21239 6.84152 9.51953 6.78042C9.82666 6.71933 10.145 6.75069 10.4343 6.87052C10.7237 6.99036 10.9709 7.1933 11.1449 7.45368C11.3189 7.71406 11.4118 8.02018 11.4118 8.33333C11.4118 8.75326 11.2449 9.15599 10.948 9.45292C10.6511 9.74985 10.2483 9.91667 9.82842 9.91667Z" fill="white"/>
</svg>
