<svg width="18" height="19" viewBox="0 0 18 19" fill="none" xmlns="http://www.w3.org/2000/svg">
<g clip-path="url(#clip0_18_46)">
<path fill-rule="evenodd" clip-rule="evenodd" d="M9.16919 18.25C14.0017 18.25 17.9192 14.3325 17.9192 9.5C17.9192 4.66751 14.0017 0.75 9.16919 0.75C4.3367 0.75 0.419189 4.66751 0.419189 9.5C0.419189 14.3325 4.3367 18.25 9.16919 18.25Z" fill="white"/>
<path fill-rule="evenodd" clip-rule="evenodd" d="M12.3927 6.12738C12.0401 5.72648 11.5377 5.47106 10.9816 5.46181C9.91398 5.44404 9.04833 6.3462 9.04833 7.47675C9.04833 7.6372 9.06543 7.79367 9.09841 7.94387C7.49168 7.83965 6.06715 7.00298 5.11368 5.7418C4.94726 6.04401 4.8519 6.39723 4.8519 6.7756C4.8519 7.49188 5.19321 8.12758 5.71195 8.50292C5.39505 8.48893 5.09695 8.393 4.83631 8.23562C4.83612 8.24422 4.83612 8.25283 4.83612 8.26158C4.83612 9.26188 5.50252 10.101 6.38692 10.2965C6.2247 10.3425 6.05391 10.3666 5.8776 10.3654C5.75303 10.3646 5.6319 10.3507 5.51387 10.3259C5.75986 11.1463 6.4738 11.7449 7.31981 11.7647C6.65817 12.3139 5.8246 12.641 4.91881 12.6392C4.76276 12.6388 4.60888 12.6288 4.45764 12.6094C5.31321 13.1964 6.32939 13.5382 7.42115 13.5385C10.9771 13.5394 12.9217 10.4449 12.9217 7.76073C12.9217 7.67267 12.9198 7.58508 12.9161 7.49791C13.2938 7.21645 13.6215 6.86357 13.8807 6.46061C13.534 6.61689 13.1614 6.72068 12.7704 6.76422C13.1695 6.51858 13.4761 6.12545 13.6204 5.65402C13.2468 5.88057 12.8331 6.04303 12.3927 6.12738Z" fill="black"/>
</g>
<defs>
<clipPath id="clip0_18_46">
<rect width="17.5" height="17.5" fill="white" transform="translate(0.419189 0.75)"/>
</clipPath>
</defs>
</svg>
