<svg width="18" height="19" viewBox="0 0 18 19" fill="none" xmlns="http://www.w3.org/2000/svg">
<g clip-path="url(#clip0_18_37)">
<path fill-rule="evenodd" clip-rule="evenodd" d="M9.16919 0.75C13.9984 0.75 17.9192 4.67075 17.9192 9.5C17.9192 14.3292 13.9984 18.25 9.16919 18.25C4.33994 18.25 0.419189 14.3292 0.419189 9.5C0.419189 4.67075 4.33994 0.75 9.16919 0.75ZM14.4094 6.86741C14.2837 6.39679 13.9131 6.02625 13.4425 5.90047C12.5894 5.67188 9.16919 5.67188 9.16919 5.67188C9.16919 5.67188 5.74893 5.67188 4.89587 5.90047C4.42539 6.02625 4.05471 6.39679 3.92893 6.86741C3.70044 7.72037 3.70044 9.50007 3.70044 9.50007C3.70044 9.50007 3.70044 11.2797 3.92893 12.1326C4.05471 12.6032 4.42539 12.9739 4.89587 13.0996C5.74893 13.3281 9.16919 13.3281 9.16919 13.3281C9.16919 13.3281 12.5894 13.3281 13.4425 13.0996C13.9131 12.9739 14.2837 12.6032 14.4094 12.1326C14.6379 11.2797 14.6379 9.50007 14.6379 9.50007C14.6379 9.50007 14.6379 7.72037 14.4094 6.86741ZM8.07541 11.1407V7.85941L10.917 9.50007L8.07541 11.1407Z" fill="white"/>
</g>
<defs>
<clipPath id="clip0_18_37">
<rect width="17.5" height="17.5" fill="white" transform="translate(0.419189 0.75)"/>
</clipPath>
</defs>
</svg>
